<!-- Camel by Orin zuu from the Noun Project -->
<svg xmlns="http://www.w3.org/2000/svg" viewBox="0 0 100 100">
  <circle fill="#202124" cx="50" cy="50" r="50" />
  <path fill="#bdc1c6" d="M30.9 22.8C30.1 22.9 29.4 23.3 28.8 23.9 27.2 24 25.4 24.4 24.1 25 21.9 25.1 20.1 25.4 18.7 26 17.3 26.6 16.3 27.8 16.3 29.3 16.3 30.1 17.1 30.5 18 30.6 17.9 31.1 18.1 31.3 18.4 31.7 19 32.1 19.5 32.1 20.2 32.2 21.6 32.3 22.7 32.5 23.9 33 27.6 41.3 31.5 44.4 34.9 46.1 38.3 47.8 41.1 48.2 43.4 51.4 43.4 57.2 43.3 63.6 42.2 69.9 41.3 70.8 39.8 72 39.3 73.8 39.2 74.3 39.6 74.8 40.1 74.7L45.5 74.6C46 74.6 46.3 73.9 46.1 73.5 45.3 72 45.9 70.4 46.4 69.2 46.4 69.1 46.4 69.1 46.4 69L48.1 56.7C49.1 62 49.3 66.5 48.3 72.9 47.2 73.9 46.5 75.1 46.1 75.9 45.8 76.3 46.2 76.9 46.7 76.9L51.7 77.2C52.2 77.2 52.6 76.8 52.5 76.3 52.2 74.7 52.3 73.6 53.1 72.2 53.2 72 53.2 71.9 53.2 71.7 52.7 65.6 53.7 62.4 53 52.3 57.2 51.5 62.7 49.3 66.3 46.9 67.5 52.1 68.9 56.1 71 60 70.4 63.7 69.6 67.3 68.6 70.1 66.9 71.4 65.4 72.8 64.9 74.5 64.8 74.9 65.2 75.4 65.6 75.4L71.4 75.3C71.9 75.3 72.2 74.8 72.1 74.4 71.8 73.3 72.2 71.4 73 69.2 73.9 67 75.1 64.4 76.2 62 76.3 61.8 76.3 61.7 76.3 61.5L76 58.7C76.8 60.1 77.6 61.4 78.5 62.6 78.9 66.2 78.9 68.7 78.4 72.2 77.5 73.1 76.3 74.4 76 75.9 75.9 76.3 76.3 76.8 76.7 76.7L82.1 76.2C82.6 76.1 82.9 75.5 82.7 75 82.2 74.3 82.1 72.2 82.3 69.4 82.4 66.7 82.8 63.2 83 59.6 83 59.5 83 59.3 82.9 59.2 79.7 54.5 79.7 50.7 79.9 47.3 80 45.6 80.1 44 79.8 42.4 80.6 43.7 81.2 45.5 81.5 48.5 81 50.4 81.2 52.8 82.1 55.2 82.5 55.2 82.1 53.2 82.2 52.2 82.4 52.9 83.1 55.2 83.8 54.7 83.1 52.2 84.3 49 82.9 47.8 82.5 45 81.9 43.1 81 41.7 80.2 40.5 79.2 39.6 78.1 39 75.7 36.5 72.2 34 69.4 32.5 67.8 30 66 27.6 64.1 25.9 62.2 24.1 60.1 22.9 58 22.9 55.1 22.9 52.9 24.2 51.2 25.7 47.8 28.8 44.9 32 41.9 35.3 40.7 36.6 39.6 37.4 38.5 37.4 37.9 37.4 37.4 36.9 37 36.5 34.8 34 33 31.1 31.7 28 33.3 26.8 34.6 25.5 35 24.1 35.2 23.6 34.6 23.1 34.1 23.2L31.7 24 31.8 23.6C31.7 23 31.4 22.8 30.9 22.8L30.9 22.8ZM58 24.4C60.2 24.5 61.9 25.8 63.2 27 63.6 27.4 64.1 27.8 64.5 28.3 63.2 28.8 62 29.1 60.6 29.2 59.1 28.1 57.6 27.7 55.7 27.7 55 26.8 54.3 26.3 53.3 26 54.6 25.1 56.5 24.4 58 24.4ZM25.4 26.9C26 26.9 26.5 27.2 26.5 27.6 26.5 28 26 28.4 25.4 28.4 24.8 28.4 24.3 28 24.3 27.6 24.3 27.2 24.8 26.9 25.4 26.9Z"/>
</svg>
